HIERARCHY
ROOT Hips
{
	OFFSET 0.000000 0.000000 0.000000 
	CHANNELS 6 Xposition Yposition Zposition Zrotation Yrotation Xrotation
	JOINT LeftUpLeg
	{
		OFFSET 1.363060 -1.794630 0.839290 
		CHANNELS 3 Zrotation Yrotation Xrotation
		JOINT LeftLeg
		{
			OFFSET 2.448110 -6.726130 0.000000 
			CHANNELS 3 Zrotation Yrotation Xrotation
			JOINT LeftFoot
			{
				OFFSET 2.562200 -7.039590 0.000000 
				CHANNELS 3 Zrotation Yrotation Xrotation
				JOINT LeftToeBase
				{
					OFFSET 0.157640 -0.433110 2.322550 
					CHANNELS 3 Zrotation Yrotation Xrotation
					End Site
					{
						OFFSET 0.000000 0.000000 0.000000 
					}
				}
			}
		}
	}
	JOINT RightUpLeg
	{
		OFFSET -1.305520 -1.794630 0.839290 
		CHANNELS 3 Zrotation Yrotation Xrotation
		JOINT RightLeg
		{
			OFFSET -2.542530 -6.985550 0.000000 
			CHANNELS 3 Zrotation Yrotation Xrotation
			JOINT RightFoot
			{
				OFFSET -2.568260 -7.056230 0.000000 
				CHANNELS 3 Zrotation Yrotation Xrotation
				JOINT RightToeBase
				{
					OFFSET -0.164730 -0.452590 2.363150 
					CHANNELS 3 Zrotation Yrotation Xrotation
					End Site
					{
						OFFSET 0.000000 0.000000 0.000000 
					}
				}
			}
		}
	}
	JOINT Spine
	{
		OFFSET 0.028270 2.035590 -0.193380 
		CHANNELS 3 Zrotation Yrotation Xrotation
		JOINT Spine1
		{
			OFFSET 0.056720 2.048850 -0.042750 
			CHANNELS 3 Zrotation Yrotation Xrotation
			JOINT Neck1
			{
				OFFSET -0.054170 1.746240 0.172020 
				CHANNELS 3 Zrotation Yrotation Xrotation
				JOINT Head
				{
					OFFSET 0.104070 1.761360 -0.123970 
					CHANNELS 3 Zrotation Yrotation Xrotation
					End Site
					{
						OFFSET 0.000000 0.000000 0.000000 
					}
				}
			}
			JOINT LeftArm
			{
				OFFSET 3.362410 1.200890 -0.311210 
				CHANNELS 3 Zrotation Yrotation Xrotation
				JOINT LeftForeArm
				{
					OFFSET 4.983000 -0.000000 -0.000000 
					CHANNELS 3 Zrotation Yrotation Xrotation
					JOINT LeftHand
					{
						OFFSET 3.483560 -0.000000 -0.000000 
						CHANNELS 3 Zrotation Yrotation Xrotation
						JOINT LeftHandIndex1
						{
							OFFSET 0.715260 -0.000000 -0.000000 
							CHANNELS 3 Zrotation Yrotation Xrotation
							End Site
							{
								OFFSET 0.000000 0.000000 0.000000 
							}
						}
					}
				}
			}
			JOINT RightArm
			{
				OFFSET -3.136600 1.374050 -0.404650 
				CHANNELS 3 Zrotation Yrotation Xrotation
				JOINT RightForeArm
				{
					OFFSET -5.241900 -0.000000 -0.000000 
					CHANNELS 3 Zrotation Yrotation Xrotation
					JOINT RightHand
					{
						OFFSET -3.444170 -0.000000 -0.000000 
						CHANNELS 3 Zrotation Yrotation Xrotation
						JOINT RightHandIndex1
						{
							OFFSET -0.622530 -0.000000 -0.000000 
							CHANNELS 3 Zrotation Yrotation Xrotation
							End Site
							{
								OFFSET 0.000000 0.000000 0.000000 
							}
						}
					}
				}
			}
		}
	}
}
MOTION
Frames: 12
Frame Time: 0.041667
-10.904919 17.876301 15.242906 22.102983 -89.053745 -20.265404 -16.012831 -7.600229 -10.458847 -0.066743 7.545820 22.463439 0.745236 -4.537120 -1.498336 0.002300 -0.312300 -0.858100 20.134152 4.625014 -13.430085 -2.424407 -10.191162 30.968904 -0.231197 -0.851378 -5.690090 -0.254900 -3.248300 8.970800 2.126817 1.939987 0.326834 -0.047485 0.991747 -4.580549 2.672383 6.118836 21.422886 3.516700 1.589700 14.665300 -87.791139 0.452529 34.761066 14.066342 -19.522804 -2.999186 -1.262310 -2.318633 8.455512 -7.125000 0.000000 0.000000 83.648585 -2.343139 14.745954 -17.849293 26.098497 -4.452397 0.353756 -0.125462 6.666788 7.125000 0.000000 0.000000 
-10.906524 17.880415 15.241903 20.871620 -89.056668 -18.992637 -15.971996 -7.650693 -10.498733 -0.060802 7.556082 22.496736 0.753520 -4.606249 -1.461115 0.001100 -0.213800 -0.587400 20.168956 4.745238 -13.395391 -2.412111 -10.174685 30.912641 -0.209388 -0.955385 -5.703148 -0.262300 -3.294800 9.100600 2.118916 1.985391 0.309710 -0.080979 1.011903 -4.563783 2.635019 6.080178 21.426596 3.485400 1.574100 14.662200 -87.659704 0.315178 34.713764 14.010705 -19.443014 -2.971725 -1.262548 -2.339855 8.533106 -7.125000 0.000000 0.000000 83.630518 -2.343830 14.651610 -17.750104 25.971157 -4.403902 0.354936 -0.131119 6.523177 7.125000 0.000000 0.000000 
-10.907728 17.886535 15.242404 19.323488 -89.019578 -17.440776 -15.942472 -7.772974 -10.472291 -0.057972 7.562530 22.519086 0.747436 -4.569401 -1.440228 0.000100 -0.078300 -0.215100 20.200156 4.912331 -13.308531 -2.401838 -10.163263 30.870644 -0.174653 -1.135452 -5.801753 -0.262700 -3.297300 9.107700 2.106669 2.007201 0.302834 -0.145115 1.017294 -4.552707 2.695980 6.015022 21.413925 3.523000 1.544200 14.650300 -87.577754 0.188305 34.559660 13.964333 -19.371441 -2.947165 -1.283618 -2.332999 8.699467 -7.125000 0.000000 0.000000 83.633762 -2.385436 14.489268 -17.695894 25.906584 -4.378559 0.352931 -0.139997 6.524111 7.125000 0.000000 0.000000 
-10.908932 17.889043 15.242806 15.664177 -88.952494 -13.805916 -15.870759 -7.839361 -10.414218 -0.060285 7.553381 22.501731 0.742287 -4.530402 -1.425233 0.000100 -0.060500 -0.166200 20.286090 5.043985 -13.225940 -2.400671 -10.170178 30.880566 -0.147793 -1.294080 -5.978963 -0.262100 -3.293500 9.097000 2.087818 2.014610 0.315508 -0.255798 1.009072 -4.503674 2.876219 5.941699 21.414044 3.630700 1.517900 14.652700 -87.476186 0.044030 34.279101 13.937152 -19.328676 -2.929344 -1.325783 -2.326214 8.948309 -7.125000 0.000000 0.000000 83.712271 -2.400618 14.305552 -17.659670 25.865907 -4.363090 0.348300 -0.140786 6.573374 7.125000 0.000000 0.000000 
-10.909634 17.883525 15.240799 16.527415 -88.826121 -14.704172 -15.929193 -7.869804 -10.367146 -0.064564 7.546088 22.477522 0.745687 -4.559241 -1.443843 0.000400 -0.130700 -0.359100 20.240971 4.960490 -13.216601 -2.406241 -10.178386 30.908834 -0.134221 -1.376521 -6.076214 -0.249400 -3.213200 8.872800 2.053031 2.007598 0.337855 -0.300866 1.006319 -4.446491 2.905297 5.899060 21.430216 3.644300 1.501700 14.674400 -87.390893 -0.161618 33.938871 13.897449 -19.268484 -2.903099 -1.403786 -2.342650 9.191761 -7.125000 0.000000 0.000000 83.747660 -2.381966 14.299697 -17.618026 25.808356 -4.341832 0.352912 -0.130030 6.524445 7.125000 0.000000 0.000000 
-10.909333 17.877404 15.237187 21.497932 -88.628247 -19.768809 -16.153093 -7.846940 -10.291382 -0.070027 7.538120 22.446012 0.757444 -4.661724 -1.500101 0.002400 -0.316800 -0.870600 20.032140 4.808708 -13.175597 -2.417578 -10.189393 30.956049 -0.111224 -1.492759 -6.121758 -0.219700 -3.017600 8.327800 2.007428 1.972452 0.350911 -0.259275 1.000538 -4.473972 2.859514 5.869410 21.451920 3.609000 1.488100 14.689200 -87.357465 -0.334176 33.663574 13.849924 -19.196579 -2.874619 -1.480577 -2.376434 9.099306 -7.125000 0.000000 0.000000 83.702372 -2.423194 14.454722 -17.565599 25.731173 -4.314384 0.359266 -0.118535 6.294307 7.125000 0.000000 0.000000 
-10.910839 17.878508 15.234679 22.819311 -88.468814 -21.143384 -16.259545 -7.848659 -10.227815 -0.077743 7.518627 22.391629 0.767241 -4.767187 -1.445216 0.002900 -0.346100 -0.950900 19.926056 4.735845 -13.151348 -2.428101 -10.205379 31.008219 -0.095431 -1.575486 -6.164512 -0.208200 -2.938100 8.106500 1.989533 1.923234 0.366264 -0.216096 0.979437 -4.458638 2.821059 5.876471 21.407531 3.588500 1.491300 14.664300 -87.289027 -0.494822 33.506223 13.813547 -19.144628 -2.854502 -1.539631 -2.389420 8.820410 -7.125000 0.000000 0.000000 83.646250 -2.430059 14.548753 -17.476782 25.613241 -4.271408 0.360487 -0.119592 6.167882 7.125000 0.000000 0.000000 
-10.912444 17.880013 15.235180 24.511977 -88.380844 -22.844462 -16.358271 -7.999882 -10.132808 -0.087769 7.498030 22.334407 0.763795 -4.797199 -1.329637 0.000100 -0.049100 -0.134900 19.815282 4.693574 -13.167255 -2.436933 -10.218379 31.050857 -0.101452 -1.558265 -6.212490 -0.220800 -3.025200 8.348800 1.977126 1.943127 0.376989 -0.168437 0.992332 -4.431119 2.787381 5.853927 21.321027 3.576300 1.478800 14.613700 -87.177969 -0.608327 33.585749 13.800936 -19.132646 -2.849475 -1.580659 -2.374578 8.640284 -7.125000 0.000000 0.000000 83.625766 -2.404476 14.273776 -17.359813 25.462738 -4.216027 0.355051 -0.123520 6.330354 7.125000 0.000000 0.000000 
-10.913849 17.880716 15.236384 26.306554 -88.316431 -24.609644 -16.455567 -8.117154 -10.093850 -0.093519 7.487062 22.304228 0.760722 -4.814031 -1.256862 0.001100 0.211100 0.580000 19.697450 4.610387 -13.239815 -2.441905 -10.224270 31.070983 -0.123267 -1.457959 -6.207729 -0.225700 -3.057900 8.439900 1.948785 1.984134 0.372521 -0.175655 1.016488 -4.416808 2.700096 5.817934 21.195684 3.523900 1.464200 14.534800 -87.091137 -0.713849 33.446860 13.778456 -19.098215 -2.838082 -1.591972 -2.343349 8.739918 -7.125000 0.000000 0.000000 83.700279 -2.394321 13.747882 -17.253817 25.327359 -4.166948 0.343194 -0.122013 6.883722 7.125000 0.000000 0.000000 
-10.914250 17.880615 15.238291 26.450993 -88.272574 -24.729557 -16.490636 -8.107527 -10.104497 -0.099665 7.474718 22.267593 0.759878 -4.809951 -1.259512 0.000400 0.136200 0.374300 19.661478 4.504609 -13.327327 -2.449819 -10.235753 31.108251 -0.135824 -1.401574 -6.209871 -0.205900 -2.921300 8.059800 1.929325 1.999938 0.363760 -0.209854 1.023920 -4.409343 2.709862 5.803374 21.204598 3.526400 1.460000 14.542100 -87.006949 -0.845673 33.049753 13.762952 -19.067001 -2.827887 -1.559742 -2.314694 8.914100 -7.125000 0.000000 0.000000 83.783084 -2.415540 13.314937 -17.169320 25.218940 -4.127068 0.338718 -0.125490 7.475794 7.125000 0.000000 0.000000 
-10.914551 17.878107 15.241100 24.941962 -88.230100 -23.227864 -16.461461 -8.084378 -10.080871 -0.106991 7.459575 22.222881 0.754556 -4.763329 -1.256021 0.000000 -0.035600 -0.097900 19.692916 4.380731 -13.379961 -2.459606 -10.250440 31.155354 -0.151183 -1.331832 -6.212735 -0.210900 -2.956500 8.157600 1.927497 1.999576 0.364622 -0.250739 1.019489 -4.395737 2.747860 5.829412 21.270847 3.556300 1.468100 14.585400 -86.927591 -0.989831 32.724092 13.757848 -19.053806 -2.822107 -1.536466 -2.323164 8.927312 -7.125000 0.000000 0.000000 83.788495 -2.463547 13.274961 -17.110105 25.138633 -4.097396 0.346100 -0.126435 7.500072 7.125000 0.000000 0.000000 
-10.914852 17.877204 15.242705 24.556143 -88.176626 -22.841961 -16.465975 -8.110411 -10.043214 -0.113098 7.444673 22.181568 0.759933 -4.817581 -1.216034 0.000000 -0.044100 -0.121300 19.677071 4.293152 -13.423852 -2.469262 -10.263904 31.199885 -0.169113 -1.245061 -6.189153 -0.227800 -3.072100 8.479500 1.915072 1.993587 0.362089 -0.278991 1.015370 -4.390511 2.738247 5.834580 21.291005 3.552800 1.468400 14.597400 -86.873131 -1.092536 32.430622 13.767411 -19.066505 -2.822649 -1.546117 -2.342005 8.975421 -7.125000 0.000000 0.000000 83.794752 -2.526119 13.339816 -17.041105 25.046070 -4.064538 0.349789 -0.129056 7.321031 7.125000 0.000000 0.000000 
